<svg width="70" height="69" viewBox="0 0 70 69" fill="none" xmlns="http://www.w3.org/2000/svg">
<path d="M61.93 26.3004C60.9787 25.3474 59.8486 24.5918 58.6044 24.077C57.3602 23.5622 56.0265 23.2982 54.68 23.3004C53.3299 23.2939 51.9919 23.5558 50.7439 24.0708C49.4959 24.5858 48.3626 25.3437 47.41 26.3004L38.23 35.5405L34.47 31.7805L43.3 22.9505C45.2266 21.0195 46.3086 18.4032 46.3086 15.6754C46.3086 12.9477 45.2266 10.3314 43.3 8.40045L35.38 0.480469L27.65 8.21045C25.7234 10.1414 24.6414 12.7577 24.6414 15.4854C24.6414 18.2132 25.7234 20.8295 27.65 22.7605L29.4 24.5005L36.9 17.0005L34.99 15.0905L29.4 20.6705C28.0546 19.2333 27.3202 17.3295 27.3519 15.3611C27.3836 13.3927 28.179 11.5136 29.57 10.1205L35.38 4.31046L41.38 10.3105C42.0839 11.0143 42.6423 11.85 43.0233 12.7696C43.4042 13.6893 43.6003 14.675 43.6003 15.6705C43.6003 16.6659 43.4042 17.6516 43.0233 18.5713C42.6423 19.491 42.0839 20.3266 41.38 21.0305L21.3 41.1005C19.8793 42.516 17.9555 43.3107 15.95 43.3107C13.9445 43.3107 12.0207 42.516 10.6 41.1005L4.60001 34.7104L10.38 29.3004C11.0839 28.5965 11.9195 28.0382 12.8392 27.6572C13.7588 27.2763 14.7445 27.0802 15.74 27.0802C16.7354 27.0802 17.7212 27.2763 18.6408 27.6572C19.5605 28.0382 20.3961 28.5965 21.1 29.3004L21.42 29.6205L23.34 27.7104L23.02 27.3805C21.0882 25.4593 18.4745 24.381 15.75 24.381C13.0255 24.381 10.4118 25.4593 8.48001 27.3805L0.73999 34.6305L8.63 43.0105C10.561 44.9371 13.1773 46.0191 15.905 46.0191C18.6327 46.0191 21.249 44.9371 23.18 43.0105L32.52 33.6705L36.28 37.4405L27.35 46.4405C25.4209 48.3701 24.3373 50.9869 24.3373 53.7155C24.3373 56.444 25.4209 59.0608 27.35 60.9904L35.29 68.8805L42.99 61.1305C44.916 59.2012 45.9977 56.5865 45.9977 53.8604C45.9977 51.1344 44.916 48.5197 42.99 46.5905L41.23 44.8405L33.76 52.3705L35.68 54.2704L41.24 48.6805C42.59 50.1108 43.3312 52.01 43.3069 53.9767C43.2827 55.9435 42.4949 57.8238 41.11 59.2205L35.32 65.0504L29.32 59.0504C27.9033 57.6263 27.108 55.6992 27.108 53.6905C27.108 51.6817 27.9033 49.7546 29.32 48.3304L49.32 28.1905C50.0197 27.4824 50.8528 26.9199 51.771 26.5355C52.6892 26.151 53.6745 25.9522 54.67 25.9505C56.6663 25.9471 58.5827 26.7345 60 28.1405L66 34.5204L60.25 40.0005C59.5461 40.7044 58.7105 41.2627 57.7908 41.6437C56.8712 42.0246 55.8855 42.2207 54.89 42.2207C53.8946 42.2207 52.9089 42.0246 51.9892 41.6437C51.0695 41.2627 50.2339 40.7044 49.53 40.0005L49.21 39.6805L47.3 41.6005L47.62 41.9205C49.5501 43.841 52.1622 44.9191 54.885 44.9191C57.6078 44.9191 60.2199 43.841 62.15 41.9205L69.87 34.6505L61.93 26.3004Z" fill="#356066"/>
</svg>
