<svg xmlns="http://www.w3.org/2000/svg" viewBox="0 0 444.75 289.64"><defs><style>.cls-1{fill:#356066;}</style></defs><g id="Layer_2" data-name="Layer 2"><g id="Layer_1-2" data-name="Layer 1"><path class="cls-1" d="M191.52,220.58c-1.14,2.36-12.13,8.11-39.56,8.11H132.25v-53c8.31-2,16.72-3.26,25.44-2.69a60.23,60.23,0,0,1,20.71,5.33L181,171a79.39,79.39,0,0,0-23.23-3,102.36,102.36,0,0,0-25.51,4.45V130.17H148c22,0,35.84,3.39,37.7,6.63a3.68,3.68,0,0,0,1.43.45l-1.86-9.44h-66.7v49.08c-8.32,2.87-16.6,5.86-25,8v-57.1H79.84v59.44c-22.27,2.27-44.83-2.44-66.13-9.42v-50H0V231.05H13.71V179.12c21.39,6.64,43.81,11.44,66.13,9.69v42.24H93.55V186.87c8.45-1.94,16.72-4.7,25-7.27v51.45h70.13l4-10.91S191.67,220.14,191.52,220.58Z"/><path class="cls-1" d="M285.08,219.84c-1.15,2.36-12.43,8.85-39.85,8.85H225.52V127.81H211.81V231.05h70.12l4.29-11.65S285.22,219.4,285.08,219.84Z"/><rect class="cls-1" x="303.93" y="127.81" width="13.71" height="103.25"/><path class="cls-1" d="M391.34,127.81h-2.58L335.49,231.05h14.14s0-1-.43-1.18c-2.71-.88-5.85-9.14,1.72-23.74l7.14-13.87h51.41l20,38.79h15.28Zm-32,62.09,24.43-47.34,24.42,47.34Z"/><path class="cls-1" d="M106.69,273.94c.18.65.49,1.69.49,1.8s-.08.1-.16.1-.18-.13-.26-.26c-1.33-1.93-4.35-2.5-7.74-2.5H95v6.75h4.2c3.15,0,3.94-.31,4.59-.86a1.87,1.87,0,0,0,.52-.81c0-.13.13-.23.18-.23s.16.15.16.36v4.44c0,.1,0,.13-.08.13s-.18-.16-.26-.4c-.34-1-1.62-2-5-2H95v4.18c0,2.24.21,3.7,1.38,4.22.13.05.26.13.26.21s-.08.1-.26.1-.86-.08-2.48-.08-2.45.08-2.68.08-.18,0-.18-.1.13-.11.23-.13c1.38-.47,1.49-2,1.49-4.28v-10.3a1.49,1.49,0,0,0-1-1.62c-.11,0-.26-.07-.26-.2s.15-.14.6-.14h14.16Z"/><path class="cls-1" d="M115,275c0-.83,0-1.95-1-2.29-.11-.05-.18-.08-.18-.18s.07-.16.41-.16.89.1,1.85.1c.6,0,1.23-.1,1.83-.1.1,0,.44,0,.44.13a.2.2,0,0,1-.18.21c-.89.26-1,1.28-1,2.29v9.18c0,2.38,0,4.23,1.17,4.75.21.08.29.16.29.23s-.13.08-.29.08-1-.08-2.3-.08c-1.46,0-2.16.08-2.4.08s-.31,0-.31-.1.18-.13.37-.26c1.14-.73,1.22-3,1.22-4.7Z"/><path class="cls-1" d="M127.29,275.45c0-1.38-.2-2.35-1.4-2.76-.13-.06-.24-.13-.24-.19s0-.18.34-.18,1.3.1,1.93.1,1.41,0,2-.05a27.8,27.8,0,0,0,3.18,3.68l8.68,9.26V276.6c0-2.22-.76-3.31-1.46-3.73-.34-.18-.6-.18-.6-.31s.16-.24.44-.24,1.52.1,2,.1,1.25-.1,1.8-.1c.36,0,.44.13.44.21s-.13.16-.42.29c-.65.26-1.4,1-1.4,3.78v10.56c0,1.38-.08,2.48-.27,2.48h-.05c-.26,0-.57-.6-2.19-2.45-3.18-3.66-7.87-8.92-11.94-12.86v10.61c0,2.66.75,3.44,1.33,3.78.36.24.55.24.55.37s-.08.1-.21.1c-.32,0-1.15-.08-2.09-.08-.55,0-2,.08-2.29.08s-.29,0-.29-.1.65-.26,1-.6c.84-.73,1.12-1.77,1.12-4.1Z"/><path class="cls-1" d="M154.55,283.87c0,1,.08,2,.18,3,.16,1.43.89,1.56,3.55,1.56s5.37-.13,7.64-1.38a4.62,4.62,0,0,0,1.56-1.41.36.36,0,0,1,.24-.13.12.12,0,0,1,.13.13.83.83,0,0,1,0,.32l-1.05,3.12H150.9c-.26,0-.37,0-.37-.07s.13-.24.47-.32c1.23-.34,1.31-3.31,1.31-4.53v-9.11c0-1-.06-1.87-1-2.34-.11-.05-.19-.08-.19-.16s.32-.16.55-.16h13.87l.47,1.52c.21.65.5,1.69.5,1.8s-.08.1-.16.1-.18-.13-.26-.26c-1.33-1.93-3.62-2.5-6.8-2.5h-4.75v6.75h2.53c3.75,0,5.35-.13,6-.73a3.12,3.12,0,0,0,.73-1.09.23.23,0,0,1,.18-.13c.13,0,.13.15.13.41v3.84c0,.15,0,.41-.1.41s-.1-.05-.16-.13a2.34,2.34,0,0,0-.88-1.09c-1.25-.84-4.33-.84-5.87-.84h-2.53Z"/><path class="cls-1" d="M187.73,286.9c0-.13.08-.26.15-.26s.11,0,.13.1a2.64,2.64,0,0,0,2.79,2.09c2.69,0,2.85-3.65,2.85-5.56v-8.92a1.7,1.7,0,0,0-1-1.69c-.1-.08-.18-.13-.18-.18s.08-.16.42-.16.88.1,1.85.1c.6,0,1.22-.1,1.95-.1.11,0,.32,0,.32.13s-.08.13-.18.18a1.71,1.71,0,0,0-1,1.72v9a6.13,6.13,0,0,1-6.39,6.31,5,5,0,0,1-2.42-.53Z"/><path class="cls-1" d="M208.12,283.87a28,28,0,0,0,.19,3c.15,1.43.88,1.56,3.54,1.56s5.38-.13,7.64-1.38a4.57,4.57,0,0,0,1.57-1.41.37.37,0,0,1,.23-.13.12.12,0,0,1,.13.13.83.83,0,0,1,0,.32l-1,3.12H204.47c-.26,0-.36,0-.36-.07s.13-.24.47-.32c1.22-.34,1.3-3.31,1.3-4.53v-9.11c0-1,0-1.87-1-2.34-.1-.05-.18-.08-.18-.16s.31-.16.55-.16h13.87l.47,1.52a18.07,18.07,0,0,1,.49,1.8c0,.08-.07.1-.15.1s-.18-.13-.26-.26c-1.33-1.93-3.63-2.5-6.81-2.5h-4.75v6.75h2.53c3.76,0,5.35-.13,6-.73a3.26,3.26,0,0,0,.73-1.09c0-.08.1-.13.18-.13s.13.15.13.41v3.84c0,.15,0,.41-.11.41s-.1-.05-.15-.13a2.37,2.37,0,0,0-.89-1.09c-1.25-.84-4.33-.84-5.87-.84h-2.53Z"/><path class="cls-1" d="M236,285.46l4.64-12.64c.21-.58.31-.92.42-.92h.05c.11,0,.21.34.42.92l4.74,12.64,3.37-8.81a6.45,6.45,0,0,0,.49-2.71,1.32,1.32,0,0,0-.78-1.15c-.26-.13-.52-.16-.52-.29s.21-.18.39-.18,1.28.1,1.88.1,1.28-.1,1.88-.1c.18,0,.39,0,.39.13s-.26.34-.47.47c-.63.37-1.72,1.77-2.71,4.41l-4.33,11.39c-.11.32-.32.92-.42.92h0c-.08,0-.21-.32-.42-.92l-4.64-12.83h-.05l-4.65,12.83c-.1.32-.31.92-.41.92h0c-.08,0-.21-.32-.42-.92l-5.35-13.17a5.86,5.86,0,0,0-1.59-2.6c-.42-.32-.55-.34-.55-.47s.32-.16.6-.16h3.76c.49,0,.73.05.73.18s-.37.19-.57.32a1,1,0,0,0-.47.93,8.82,8.82,0,0,0,.88,3.06Z"/><path class="cls-1" d="M263,283.87a28,28,0,0,0,.19,3c.15,1.43.88,1.56,3.54,1.56s5.37-.13,7.64-1.38a4.66,4.66,0,0,0,1.57-1.41.34.34,0,0,1,.23-.13.12.12,0,0,1,.13.13.83.83,0,0,1-.05.32l-1,3.12H259.35c-.26,0-.36,0-.36-.07s.13-.24.47-.32c1.22-.34,1.3-3.31,1.3-4.53v-9.11c0-1-.05-1.87-1-2.34-.1-.05-.18-.08-.18-.16s.31-.16.54-.16H274l.47,1.52a18.07,18.07,0,0,1,.49,1.8c0,.08-.08.1-.15.1s-.19-.13-.26-.26c-1.33-1.93-3.63-2.5-6.81-2.5H263v6.75h2.53c3.76,0,5.35-.13,6-.73a3,3,0,0,0,.73-1.09c.06-.08.11-.13.19-.13s.13.15.13.41v3.84c0,.15,0,.41-.11.41s-.1-.05-.15-.13a2.43,2.43,0,0,0-.89-1.09c-1.25-.84-4.33-.84-5.87-.84H263Z"/><path class="cls-1" d="M284.73,289.11c-.55,0-.94,0-1.25,0l-.55.05c-.21,0-.29,0-.29-.15s.16-.16.37-.21c1.3-.39,1.67-1.38,1.67-4.49v-9.15c0-1.77-.34-2.3-1.07-2.5-.16-.06-.21-.13-.21-.19s.13-.18.47-.18.89.1,1.85.1c1.12,0,1.85-.1,2.4-.1.11,0,.29,0,.29.16s-.11.13-.21.18c-1,.29-1.25,1.28-1.28,2.29v7.38c0,5.85.39,6.13,2.92,6.13s6.86-.28,8.63-2.45c.13-.21.26-.39.42-.39s.13.08.13.18a1.57,1.57,0,0,1,0,.32l-1,3Z"/><path class="cls-1" d="M309.2,284.45c0,2.08.23,4.09,1.3,4.43.18.05.42.13.42.21s-.21.1-.52.1-.73-.08-2.3-.08c-2,0-2.55.08-2.66.08s-.23,0-.23-.1.23-.16.41-.26c.89-.45,1.33-1.83,1.33-5.19V275c0-.83-.15-1.9-1-2.24-.29-.11-.39-.21-.39-.29s.13-.13.52-.13h7.66c6.94,0,8.69,1.83,8.69,4.09,0,3.32-4.54,4-6.18,4v.05c3,.83,4.17,1.38,5.32,4.41.49,1.25,1,3.13,2,3.78.44.28.63.21.63.34s0,.07-.19.07h-3c-.58,0-.71-.05-.94-.7-.58-1.59-1.39-3.86-1.93-5.06-1.05-2.27-2-2.71-6.13-2.71H309.2Zm0-4.46H314c2.63,0,5.61-.5,5.61-3.73,0-2.4-2.3-3.29-4.49-3.29H309.2Z"/><path class="cls-1" d="M339.22,285.26c0,2,.21,2.79.68,3.26a8.84,8.84,0,0,0,.88.54c0,.05-.1.11-.28.11s-1.13-.06-2.33-.06c-1.38,0-2.19.06-2.5.06s-.23-.08-.23-.11.46-.18.83-.54.7-1.26.7-3.26v-3.32L333,276.73c-.76-.89-2.25-2.82-3.13-3.63-.24-.21-.78-.44-.78-.62s.07-.16.18-.16c.39,0,1.56.1,2.29.1.91,0,2.25-.1,2.87-.1a.19.19,0,0,1,.21.21c0,.08-.21.08-.39.16a.85.85,0,0,0-.68.86c0,.67.55,1.56,1.56,2.76l3.68,4.43,2.95-3.39c.65-.78,2.35-2.6,2.35-3.7a1.07,1.07,0,0,0-.84-1c-.08,0-.23-.08-.23-.18s0-.16.13-.16h.05c.91,0,1.46.08,2,.08s1.25-.08,1.82-.08h.39c.11.05.13.1.13.18s-.05.16-.18.26a35.3,35.3,0,0,0-4.8,4.83l-3.36,4.09Z"/><path class="cls-1" d="M245,25.8l0,0a10.2,10.2,0,0,0-7.25-3h0a10.2,10.2,0,0,0-7.26,3l-9.18,9.23-3.76-3.76,8.82-8.82a10.3,10.3,0,0,0,0-14.55L218.42,0,210.7,7.73a10.28,10.28,0,0,0,0,14.54L212.45,24l7.5-7.5L218,14.61l-5.58,5.58a7.59,7.59,0,0,1,.16-10.55l5.81-5.81,6,6a7.58,7.58,0,0,1,0,10.72L204.35,40.63a7.58,7.58,0,0,1-10.71,0l-6-6.39,5.78-5.4,0,0a7.58,7.58,0,0,1,10.72,0l.32.32,1.91-1.92-.32-.32a10.3,10.3,0,0,0-14.53,0l-7.74,7.24,7.89,8.39,0,0a10.28,10.28,0,0,0,14.54,0l9.34-9.34L219.37,37l-8.93,9a10.29,10.29,0,0,0,0,14.54l7.94,7.9,7.7-7.75a10.3,10.3,0,0,0,0-14.55l-1.75-1.74-7.48,7.52,1.92,1.91,5.57-5.6a7.59,7.59,0,0,1-.14,10.55l-5.79,5.83-6-6a7.59,7.59,0,0,1,0-10.72l20-20.13a7.5,7.5,0,0,1,5.35-2.24h0a7.55,7.55,0,0,1,5.33,2.19l6,6.37-5.76,5.43,0,0a7.59,7.59,0,0,1-10.72,0l-.32-.32-1.91,1.92.33.32a10.3,10.3,0,0,0,14.53,0L253,34.16Z"/></g></g></svg>